<?xml version="1.0" encoding="utf-8"?>
<!-- Generator: Adobe Illustrator 16.0.0, SVG Export Plug-In . SVG Version: 6.00 Build 0)  -->
<!DOCTYPE svg PUBLIC "-//W3C//DTD SVG 1.1//EN" "http://www.w3.org/Graphics/SVG/1.1/DTD/svg11.dtd">
<svg version="1.1" id="Layer_1" xmlns="http://www.w3.org/2000/svg" xmlns:xlink="http://www.w3.org/1999/xlink" x="0px" y="0px"
	 width="299.551px" height="50px" viewBox="0 0 299.551 50" enable-background="new 0 0 299.551 50" xml:space="preserve">
<g>
	<path fill="#EC2127" d="M23.003,0C12.06,0,0,8.325,0,17.039c0,4.719,2.492,6.357,7.014,6.357c-0.066-0.59-0.918-1.116-0.918-4.456
		c0-9.962,7.076-15.925,17.694-15.925c7.535,0,9.042,4.653,9.042,12.844c0,12.58-4.783,28.375-12.582,28.375
		c-1.244,0-2.489-0.395-3.735-1.31L24.38,6.16l-9.701,1.311L5.768,49.149h9.437l0.523-2.622C18.548,48.951,21.234,50,23.724,50
		c9.697,0,18.153-15.399,18.153-32.305C41.876,8.455,38.141,0,23.003,0z"/>
	<path fill="#EC2127" d="M92.114,15.071c-2.164,0-3.738,1.836-3.738,3.212c0,1.834,0.854,3.671,2.753,3.671
		c0.392,0,0.985-0.134,1.377-0.265c0,7.146-4.392,21.496-10.813,21.496c-1.9,0-2.49-0.853-2.49-2.097
		c0-0.719,0.13-1.508,0.329-2.426l4.716-22.278h-9.437l-1.806,8.524c-0.936,0.575-1.95,1.042-3.321,1.042
		c-0.916,0-1.507-0.197-1.9-0.589c-0.13-4.785-1.705-9.634-7.929-9.634c-9.044,0-17.234,6.948-17.234,23.067
		c0,7.798,3.014,10.746,10.026,10.746c6.552,0,13.697-6.484,14.94-19.657c1.719-0.475,3.335-1.201,4.803-2.065l-2.297,10.845
		c-0.262,1.247-0.326,2.36-0.326,3.344c0,4.915,3.079,7.143,8.124,7.143c13.238,0,18.417-17.956,18.417-28.179
		C96.308,17.563,94.932,15.071,92.114,15.071z M62.74,30.537c-0.787,6.359-3.015,12.648-7.012,12.648
		c-2.555,0-4.391-1.047-4.391-4.98c0-5.242,2.62-18.611,8.78-18.611c1.835,0,2.556,1.247,2.753,3.409
		c-1.769,0.654-2.885,2.686-2.885,4.586C59.986,29.161,60.837,30.537,62.74,30.537z"/>
	<polygon fill="#EC2127" points="229.01,0 222.131,0 216.166,12.385 221.08,12.385 	"/>
	<path fill="#EC2127" d="M230.453,16.385h-9.373l-0.391,1.701c-1.182-0.981-2.818-1.638-4.393-1.638
		c-13.105,0-17.168,13.499-17.168,24.772c0,0.383,0.034,0.776,0.072,1.168c-0.688,0.458-1.414,0.797-2.385,0.797
		c-2.557,0-3.276-0.983-3.276-2.424c0-0.656,0.13-1.376,0.327-2.099l2.688-12.515c0.13-0.525,0.13-1.048,0.13-1.574
		c0-4.391-3.997-8.19-7.536-8.19c-2.881,0-5.896,1.571-8.584,3.538l0.785-3.538h-9.437l-4.111,19.396h-0.029
		c-2.292,4.85-7.797,8.648-11.008,8.648c-2.557,0-5.374-1.31-5.374-5.635c0-0.787,0.064-1.769,0.198-2.816
		c6.224-0.788,14.81-5.373,14.81-13.371c0-4.585-3.015-6.813-8.388-6.813c-11.929,0-15.466,14.613-15.466,22.937
		c0,0.8,0.088,1.573,0.224,2.329c-1.521,1.191-3.042,2.125-4.361,2.125c-2.557,0-3.276-0.983-3.276-2.424
		c0-0.526,0.131-1.114,0.328-2.099l7.537-35.387l-9.701,1.31l-4.213,19.731c-1.201,0.845-2.428,1.634-4.257,1.634
		c-0.918,0-1.508-0.197-1.9-0.589c-0.131-4.785-1.705-9.634-7.929-9.634c-9.045,0-17.235,6.948-17.235,23.067
		c0,7.798,3.015,10.746,10.026,10.746c6.553,0,13.697-6.484,14.941-19.657c2.098-0.578,4.042-1.515,5.736-2.652l-2.441,11.432
		c-0.261,1.247-0.392,2.36-0.392,3.344c0,4.915,3.078,7.143,8.124,7.143c2.905,0,6.531-2.82,9.689-5.804
		c1.382,3.393,4.352,5.804,8.8,5.804c5.856,0,10.642-3.2,14.292-7.393l-1.566,7.393h9.436l5.57-26.474
		c1.375-0.918,2.557-1.377,4.129-1.377c1.768,0,3.014,1.507,3.014,3.866c0,0.524-0.066,1.115-0.197,1.705l-2.489,11.793
		c-0.261,1.247-0.395,2.296-0.395,3.344c0,4.915,3.015,7.143,8.126,7.143c2.674,0,5.305-1.944,7.645-4.223
		c0.979,2.539,3.166,4.614,7.449,4.614c3.996,0,6.943-2.686,8.91-5.372c0.656,3.015,2.688,4.98,6.488,4.98
		c2.229,0,4.98-0.392,6.814-6.029c-0.521,0.196-1.242,0.196-1.701,0.196c-1.836,0-2.361-1.049-2.361-2.424
		c0-0.722,0.135-1.44,0.326-2.229L230.453,16.385z M160.171,19.267c1.965,0,2.294,2.294,2.294,3.67
		c-0.067,4.652-4.325,9.828-10.354,9.896C153.488,26.671,156.502,19.267,160.171,19.267z M117.878,30.537
		c-0.787,6.359-3.015,12.648-7.011,12.648c-2.556,0-4.391-1.047-4.391-4.98c0-5.242,2.62-18.611,8.78-18.611
		c1.836,0,2.556,1.247,2.753,3.409c-1.769,0.654-2.884,2.686-2.884,4.586C115.125,29.161,115.977,30.537,117.878,30.537z
		 M216.363,38.663c-0.197,0.723-0.328,1.442-0.328,2.099c-1.309,1.836-2.754,3.342-4.26,3.342c-1.639,0-3.801-0.72-3.801-4.651
		c0-8.915,3.934-19.334,8.848-19.334c0.918,0,2.16,0.263,3.209,1.181L216.363,38.663z"/>
	<path fill="#EC2127" d="M239.576,38.993c-2.881,0-5.176,2.358-5.176,5.241c0,2.886,2.295,5.178,5.176,5.178
		c2.887,0,5.244-2.292,5.244-5.178C244.82,41.352,242.463,38.993,239.576,38.993z"/>
	<path fill="#EC2127" d="M293.061,39.254c-2.096,0-4.189,0.917-4.189,3.997c0,1.115,0.586,1.836,1.178,1.836
		c0,1.179-1.572,1.44-3.605,1.44c-1.572,0-3.277-0.063-4.783-0.132l17.891-30.011h-16.582c-5.24,0-7.666,2.75-7.666,6.093
		c0,2.097,1.244,3.802,3.08,3.802c2.1,0,4.127-0.854,4.127-3.934c0-1.115-0.521-1.898-1.111-1.898c0-1.182,1.246-1.445,3.014-1.445
		c1.244,0,2.818,0.132,4.326,0.132l-17.891,30.014h17.629c5.242,0,7.664-2.754,7.664-6.093
		C296.141,40.959,294.896,39.254,293.061,39.254z"/>
	<path fill="#EC2127" d="M262.328,43.579c-3.998,0-4.717-3.8-4.717-7.012c0-7.077,3.535-17.758,9.043-17.758
		c1.441,0,1.9,0.653,1.9,2.229c0,0.522-0.133,1.111-0.33,1.833h3.738c0.26-0.851,0.326-1.441,0.326-2.162
		c0-3.604-3.145-4.522-6.684-4.522c-12.715,0-16.84,12.649-16.84,22.217c0,7.73,4.191,10.746,9.629,10.746
		c8.26,0,13.107-3.735,13.107-9.437C268.945,41.941,265.869,43.579,262.328,43.579z"/>
</g>
</svg>
