<?xml version="1.0" encoding="utf-8"?>
<!-- Generator: Adobe Illustrator 16.0.0, SVG Export Plug-In . SVG Version: 6.00 Build 0)  -->
<!DOCTYPE svg PUBLIC "-//W3C//DTD SVG 1.1//EN" "http://www.w3.org/Graphics/SVG/1.1/DTD/svg11.dtd">
<svg version="1.1" id="Layer_1" xmlns="http://www.w3.org/2000/svg" xmlns:xlink="http://www.w3.org/1999/xlink" x="0px" y="0px"
	 width="100px" height="100px" viewBox="0 0 100 100" enable-background="new 0 0 100 100" xml:space="preserve">
<g>
	<path fill="#FFFFFF" d="M74,36c0,1.104-0.896,2-2,2H28c-1.104,0-2-0.896-2-2l0,0c0-1.104,0.896-2,2-2h44C73.104,34,74,34.896,74,36
		L74,36z"/>
	<path fill="#FFFFFF" d="M74,50c0,1.104-0.896,2-2,2H28c-1.104,0-2-0.896-2-2l0,0c0-1.104,0.896-2,2-2h44C73.104,48,74,48.896,74,50
		L74,50z"/>
	<path fill="#FFFFFF" d="M74,64c0,1.105-0.896,2-2,2H28c-1.104,0-2-0.895-2-2l0,0c0-1.104,0.896-2,2-2h44C73.104,62,74,62.896,74,64
		L74,64z"/>
</g>
</svg>
