<?xml version="1.0" encoding="utf-8"?>
<!-- Generator: Adobe Illustrator 16.0.0, SVG Export Plug-In . SVG Version: 6.00 Build 0)  -->
<!DOCTYPE svg PUBLIC "-//W3C//DTD SVG 1.1//EN" "http://www.w3.org/Graphics/SVG/1.1/DTD/svg11.dtd">
<svg version="1.1" id="Layer_1" xmlns="http://www.w3.org/2000/svg" xmlns:xlink="http://www.w3.org/1999/xlink" x="0px" y="0px"
	 width="60px" height="60px" viewBox="0 0 60 60" enable-background="new 0 0 60 60" xml:space="preserve">
<g>
	<path fill="#FFD675" d="M30,11.177l4.228,13.014l0.674,2.073h2.18l13.687,0L39.695,34.31l-1.763,1.281l0.673,2.072l4.229,13.014
		l-11.07-8.043L30,41.353l-1.763,1.281l-11.071,8.043l4.229-13.014l0.674-2.072l-1.763-1.281L9.232,26.265h13.686h2.18l0.673-2.073
		L30,11.177 M30,1.468l-7.082,21.796H0l18.541,13.472l-7.082,21.795L30,45.061l18.54,13.471l-7.081-21.795L60,23.265l-22.919,0
		L30,1.468L30,1.468z"/>
</g>
</svg>
